<svg width="65" height="65" viewBox="0 0 65 65" fill="none" xmlns="http://www.w3.org/2000/svg">
<path d="M32.526 36.7372C34.88 36.7372 36.7883 34.8289 36.7883 32.4749C36.7883 30.1209 34.88 28.2126 32.526 28.2126C30.172 28.2126 28.2637 30.1209 28.2637 32.4749C28.2637 34.8289 30.172 36.7372 32.526 36.7372Z" fill="#771016"/>
<path d="M60.1292 32.4747C58.0995 30.4451 53.6342 26.1828 47.9512 22.9353C49.7779 25.7768 50.7927 29.0243 50.7927 32.4747C50.7927 35.9252 49.7779 39.3756 47.9512 42.0141C53.8372 38.7667 58.3025 34.5044 60.1292 32.4747Z" fill="white"/>
<path d="M64.5941 33.6924C63.9852 34.3013 51.1983 49.3208 34.555 50.5386C33.9461 50.5386 33.3372 50.7416 32.5254 50.7416C31.7135 50.7416 31.1046 50.7416 30.4957 50.5386C13.8525 49.3208 1.06557 34.3013 0.456674 33.6924C-0.152225 32.8806 -0.152225 31.8657 0.456674 31.0539C1.06557 30.445 13.8525 15.4254 30.4957 14.4106C31.1046 14.2077 31.9165 14.2077 32.5254 14.2077C33.1343 14.2077 33.9461 14.2077 34.555 14.4106C51.1983 15.6284 63.9852 30.6479 64.5941 31.2568C65 31.6628 65 32.0687 65 32.4746C65 14.6136 50.3864 0 32.5254 0C14.6643 0 0.0507415 14.6136 0.0507415 32.4746C0.0507415 50.3357 14.6643 64.9493 32.5254 64.9493C50.3864 64.9493 65 50.3357 65 32.4746C65 32.8806 64.797 33.4895 64.5941 33.6924Z" fill="white"/>
<path d="M18.3177 32.4747C18.3177 40.3904 24.6096 46.6824 32.5253 46.6824C40.441 46.6824 46.733 40.3904 46.733 32.4747C46.733 24.559 40.441 18.2671 32.5253 18.2671C24.6096 18.2671 18.3177 24.559 18.3177 32.4747ZM40.8469 32.4747C40.8469 37.143 37.1935 40.7964 32.5253 40.7964C27.8571 40.7964 24.2037 37.143 24.2037 32.4747C24.2037 27.8065 27.8571 24.1531 32.5253 24.1531C37.1935 24.1531 40.8469 27.8065 40.8469 32.4747ZM4.92188 32.4747C6.95154 34.5044 11.4168 38.7667 17.0999 42.0142C15.2732 39.3756 14.2583 35.9252 14.2583 32.4747C14.2583 29.0243 15.2732 25.5739 17.0999 22.9353C11.2138 26.1828 6.74857 30.4451 4.92188 32.4747Z" fill="white"/>
</svg>
